<svg xmlns="http://www.w3.org/2000/svg" viewBox="0 0 176.45 40.72"><defs><style>.cls-1{font-size:37.62px;font-family:KingsCaslonW01-BoldItalic;font-weight:700;font-style:italic;}.cls-1,.cls-3{fill:#fed136;}.cls-2{fill:none;stroke:#000;stroke-miterlimit:10;}</style></defs><g id="Capa_2" data-name="Capa 2"><text class="cls-1" transform="translate(0 31.47)">Grupo 2</text><circle class="cls-2" cx="157.92" cy="20.83" r="18.03"/><path class="cls-3" d="M196.24,4a.74.74,0,0,1,.83-.09,3.18,3.18,0,0,0,.18-.65c0-.08.33-.35.45-.23s.23.19,0,1a.41.41,0,0,0,.36.19c.27,0,.36-.47.36-.47a.28.28,0,0,1,.43.16.86.86,0,0,0,.51.56s.33-.06.35.09.16.27-.2.48a1.27,1.27,0,0,0-.3.72s0,.25-.38.13c0,0-.4-.33-.4-.39s-.35,0-.37,0-.23-.11-.12-.63c0,0-.15-.28-.28-.27h-.72s-.15.13-.27.11S196,4.76,196.24,4Z" transform="translate(-39.38 1.29)"/><path class="cls-3" d="M194.29,6.2a1,1,0,0,1,1-.25,4.81,4.81,0,0,0,.12-.86c0-.09.35-.5.53-.37s.33.2.17,1.23a.49.49,0,0,0,.49.18c.34,0,.37-.66.37-.66a.37.37,0,0,1,.58.12,1.12,1.12,0,0,0,.74.64s.41-.13.46,0c0,0,.25.31-.17.65a1.55,1.55,0,0,0-.25,1s0,.34-.47.24c0,0-.57-.36-.57-.43s-.44.12-.47.07-.31-.1-.26-.77c0,0-.24-.33-.4-.3s-.92.12-.92.12-.16.2-.32.18S194.11,7.23,194.29,6.2Z" transform="translate(-39.38 1.29)"/><path class="cls-3" d="M192.79,9.64A1.16,1.16,0,0,1,194,9.09a5.56,5.56,0,0,0-.07-1c-.07-.1.29-.67.53-.56s.43.16.49,1.39a.62.62,0,0,0,.62.1c.38-.14.26-.86.26-.86a.44.44,0,0,1,.71,0,1.33,1.33,0,0,0,1,.56s.44-.26.55-.06c0,0,.36.3-.05.8a1.89,1.89,0,0,0-.06,1.18s.06.39-.49.38a4,4,0,0,1-.77-.36c0-.08-.48.25-.52.2s-.39,0-.5-.84c0,0-.36-.32-.53-.25l-1,.35s-.14.27-.33.29S192.83,10.87,192.79,9.64Z" transform="translate(-39.38 1.29)"/><path class="cls-3" d="M192.59,13a1.17,1.17,0,0,1,1.12-.63,6,6,0,0,0-.14-1c-.08-.09.24-.69.48-.6s.44.13.59,1.36a.62.62,0,0,0,.63.05c.37-.16.2-.88.2-.88a.44.44,0,0,1,.71,0,1.35,1.35,0,0,0,1.06.49s.42-.29.54-.1c0,0,.38.28,0,.8a1.88,1.88,0,0,0,0,1.18s.09.39-.46.42a3.52,3.52,0,0,1-.79-.3c0-.08-.47.27-.52.23s-.38,0-.55-.8c0,0-.38-.3-.55-.22l-1,.43s-.12.28-.31.32S192.72,14.23,192.59,13Z" transform="translate(-39.38 1.29)"/><path class="cls-3" d="M193.9,17.25a1.17,1.17,0,0,1,.83-1,5.19,5.19,0,0,0-.49-.91c-.1,0,0-.73.25-.72s.46,0,1,1.06a.61.61,0,0,0,.6-.17c.29-.28-.11-.89-.11-.89a.44.44,0,0,1,.64-.29,1.33,1.33,0,0,0,1.17.09s.29-.41.47-.28c0,0,.46.13.29.75A1.86,1.86,0,0,0,199,16s.22.33-.28.55a3.48,3.48,0,0,1-.85,0c-.06-.06-.34.42-.41.4s-.36.12-.79-.56c0,0-.46-.15-.59,0l-.81.75s0,.31-.18.41S194.45,18.36,193.9,17.25Z" transform="translate(-39.38 1.29)"/><path class="cls-3" d="M195.5,20a1.15,1.15,0,0,1,.82-1,5.64,5.64,0,0,0-.5-.91c-.11-.05,0-.73.24-.73s.46,0,1,1.06a.62.62,0,0,0,.61-.18c.29-.28-.12-.89-.12-.89a.43.43,0,0,1,.64-.29,1.33,1.33,0,0,0,1.16.08s.29-.42.47-.29c0,0,.46.13.3.75a1.86,1.86,0,0,0,.44,1.09s.22.33-.28.56a4,4,0,0,1-.85,0c-.05-.07-.33.42-.39.39s-.37.13-.8-.54c0,0-.47-.15-.6,0s-.79.76-.79.76,0,.31-.18.41S196.06,21.07,195.5,20Z" transform="translate(-39.38 1.29)"/><path class="cls-3" d="M196.9,23.25a1.15,1.15,0,0,1,.75-1,6.09,6.09,0,0,0-.55-.87c-.11-.05-.07-.73.19-.74s.46-.06,1.1,1a.6.6,0,0,0,.59-.22c.27-.3-.18-.88-.18-.88a.45.45,0,0,1,.63-.33,1.31,1.31,0,0,0,1.16,0s.27-.43.46-.31c0,0,.46.1.34.73a1.91,1.91,0,0,0,.51,1.06s.24.31-.25.57a3.25,3.25,0,0,1-.84.05c-.06-.06-.31.45-.37.43s-.36.14-.84-.5c0,0-.47-.11-.59,0s-.75.81-.75.81,0,.31-.15.42S197.52,24.31,196.9,23.25Z" transform="translate(-39.38 1.29)"/><path class="cls-3" d="M198,25.45a1.15,1.15,0,0,1,.9-.91,6.18,6.18,0,0,0-.42-.95c-.1-.06,0-.73.3-.7s.46,0,.94,1.13a.61.61,0,0,0,.62-.12c.31-.26-.05-.9-.05-.9a.43.43,0,0,1,.66-.24,1.33,1.33,0,0,0,1.16.17s.32-.39.49-.24c0,0,.44.16.23.77a1.88,1.88,0,0,0,.36,1.12s.19.35-.33.53A3.7,3.7,0,0,1,202,25c0-.07-.36.4-.42.37s-.38.09-.76-.62c0,0-.45-.18-.59-.05l-.86.69s0,.31-.2.4S198.5,26.6,198,25.45Z" transform="translate(-39.38 1.29)"/><path class="cls-3" d="M198.16,27.64a1.06,1.06,0,0,1,1.06-.5,5.55,5.55,0,0,0-.06-.95c-.07-.08.27-.61.48-.51s.39.15.45,1.28a.57.57,0,0,0,.57.09c.35-.13.24-.79.24-.79a.41.41,0,0,1,.65,0,1.22,1.22,0,0,0,.93.51s.41-.23.51-.05c0,0,.33.28-.05.73a1.7,1.7,0,0,0-.05,1.08s.05.36-.45.35a3.13,3.13,0,0,1-.7-.33c0-.07-.44.23-.49.18s-.35,0-.45-.77c0,0-.33-.29-.49-.23l-1,.33s-.13.24-.3.26S198.2,28.77,198.16,27.64Z" transform="translate(-39.38 1.29)"/><path class="cls-3" d="M197,30.43a1.16,1.16,0,0,1,1.22-.39,5.5,5.5,0,0,0,.06-1c-.06-.1.38-.63.59-.48s.41.21.32,1.44a.59.59,0,0,0,.6.17c.4-.08.37-.81.37-.81a.44.44,0,0,1,.7.09,1.36,1.36,0,0,0,.94.69s.47-.2.55,0c0,0,.33.35-.15.79a1.85,1.85,0,0,0-.2,1.16s0,.39-.54.32c0,0-.7-.37-.71-.46s-.51.19-.55.13-.38-.09-.39-.89c0,0-.31-.37-.49-.32l-1.09.22s-.17.25-.36.25S196.92,31.66,197,30.43Z" transform="translate(-39.38 1.29)"/><path class="cls-3" d="M196.18,34.45a1.16,1.16,0,0,1,1-.77,5.5,5.5,0,0,0-.28-1c-.09-.08.15-.72.41-.65s.45.07.76,1.26a.61.61,0,0,0,.63,0c.35-.21.08-.9.08-.9a.45.45,0,0,1,.7-.14,1.34,1.34,0,0,0,1.11.35s.38-.34.53-.17c0,0,.41.22.11.79a1.91,1.91,0,0,0,.18,1.17s.14.37-.4.48a3.9,3.9,0,0,1-.82-.2c0-.08-.43.33-.48.3s-.39,0-.66-.72c0,0-.41-.25-.57-.14l-.95.56s-.08.29-.27.35S196.47,35.65,196.18,34.45Z" transform="translate(-39.38 1.29)"/></g></svg>